<?xml version="1.0" standalone="no"?>
<!DOCTYPE svg PUBLIC "-//W3C//DTD SVG 20010904//EN"
 "http://www.w3.org/TR/2001/REC-SVG-20010904/DTD/svg10.dtd">
<svg version="1.0" xmlns="http://www.w3.org/2000/svg"
 width="256.000000pt" height="256.000000pt" viewBox="0 0 256.000000 256.000000"
 preserveAspectRatio="xMidYMid meet">
<metadata>
Created by potrace 1.14, written by Peter Selinger 2001-2017
</metadata>
<g transform="translate(0.000000,256.000000) scale(0.100000,-0.100000)"
fill="#000000" stroke="none">
<path d="M1230 2393 c-116 -15 -224 -67 -306 -148 -112 -111 -152 -227 -150
-438 1 -78 -3 -127 -9 -128 -5 0 -46 -2 -90 -3 -128 -5 -199 -48 -252 -151
l-26 -50 0 -550 c0 -529 1 -552 20 -595 29 -66 67 -106 130 -136 l56 -28 678
0 678 1 58 29 c65 33 117 93 134 157 12 44 16 1052 4 1116 -14 78 -78 156
-154 189 -20 8 -74 16 -121 18 -47 1 -87 3 -90 3 -3 1 -5 65 -6 144 -1 159
-15 225 -67 317 -94 166 -304 275 -487 253z m137 -239 c90 -31 159 -103 183
-194 14 -52 15 -271 2 -279 -18 -11 -543 -5 -550 6 -9 15 -7 219 3 263 12 58
42 105 91 149 76 67 176 87 271 55z"/>
</g>
</svg>
